<svg class="css-ze2te4 css-qd6ojx" viewBox="0 0 85.01931395515673 85.01931395515673"><g transform="translate(-6.695744485467519, -4.72329521973093) scale(0.9446590439461859)" class="css-1mun45u" fill="#111111"><path xmlns="http://www.w3.org/2000/svg" d="M52.088,5c-24.852,0-45,20.148-45,45c0,24.854,20.148,45,45,45s45-20.146,45-45C97.088,25.148,76.94,5,52.088,5   M52.088,91.4c-9.74,0-18.696-3.389-25.775-9.037c1.247-0.524,2.938-1.194,3.827-1.505c2.623-0.928,5.328-1.646,8.058-2.174  c3.751-0.731,3.264-2.496,3.475-6.423c0.03-0.567,0.891-4.936,0.29-5.233c-2.482-1.243-3.194-5.382-3.284-7.843  c-0.053-1.392-0.088-2.157-0.977-3.245c-0.74-0.903-1.334-1.94-1.842-2.988c-1.08-2.23-2.355-5.532-1.15-7.947  c0.257-0.515,0.584-0.999,0.731-1.554c0.255-0.942-0.425-1.826-0.548-2.76c-0.151-1.169-0.253-2.348-0.429-3.516  c-0.337-2.22-0.364-4.887-0.075-7.126c0.312-2.433,2.312-4.56,3.939-6.256c3.971-4.126,10.839-7.162,16.71-5.905  c6.231,1.336,12.923,3.835,14.294,10.7c0.513,2.554,0.561,5.172,0.278,7.756c-0.181,1.675-0.83,3.445-0.83,5.119  c0,1.301,0.921,2.431,1.146,3.651c0.241,1.32-0.394,3.445-0.752,4.725c-0.485,1.747-0.917,3.549-1.814,5.142  c-0.823,1.457-1.749,2.264-1.918,4.046c-0.23,2.412-0.634,6.367-3.122,7.608c-0.6,0.3,0.151,5.059,0.181,5.626  c0.211,3.927,1.526,5.692,5.275,6.423c2.73,0.529,5.437,1.246,8.06,2.174c0.454,0.158,1.628,0.677,2.552,1.09  C71.232,87.851,62.067,91.4,52.088,91.4"></path></g></svg>